<?xml version="1.0" encoding="UTF-8" standalone="no"?>
<svg
   xmlns:dc="http://purl.org/dc/elements/1.1/"
   xmlns:cc="http://creativecommons.org/ns#"
   xmlns:rdf="http://www.w3.org/1999/02/22-rdf-syntax-ns#"
   xmlns:svg="http://www.w3.org/2000/svg"
   xmlns="http://www.w3.org/2000/svg"
   id="svg10"
   version="1.1"
   height="1010"
   width="640"
   viewBox="1 -1 640 1010"
   style="isolation:isolate">
  <metadata
     id="metadata16">
    <rdf:RDF>
      <cc:Work
         rdf:about="">
        <dc:format>image/svg+xml</dc:format>
        <dc:type
           rdf:resource="http://purl.org/dc/dcmitype/StillImage" />
        <dc:title></dc:title>
      </cc:Work>
    </rdf:RDF>
  </metadata>
  <defs
     id="defs14" />
  <path
     id="path2"
     class="silhouette"
     d="m 320,59 v 0.259766 L 214,73 c -30,6 -71.29,7.388 -98,34 -14.662,14.608 -24.01,30.189 -30,50 H 61 v 592 h 78 v 0.13281 L 61,749 139,768.00977 V 949 h 42 V 778.24414 L 315.40625,811 463,777.03711 V 949 h 42 V 767.37109 l 76,-17.48828 -76,-0.1289 V 749 h 76 V 157 H 556 C 550.01,137.189 540.662,121.608 526,107 499.29,80.388 458,79 428,73 L 322,59.259766 V 59 l -1,0.130859 z M 181,749 h 282 v 0.68164 l -282,-0.47852 z" />
</svg>
