<?xml version="1.0" encoding="UTF-8" standalone="no"?>
<svg
   xmlns:dc="http://purl.org/dc/elements/1.1/"
   xmlns:cc="http://creativecommons.org/ns#"
   xmlns:rdf="http://www.w3.org/1999/02/22-rdf-syntax-ns#"
   xmlns:svg="http://www.w3.org/2000/svg"
   xmlns="http://www.w3.org/2000/svg"
   id="svg10"
   version="1.1"
   height="1156"
   width="640"
   viewBox="16.5 52.5 640 1156"
   style="isolation:isolate">
  <metadata
     id="metadata16">
    <rdf:RDF>
      <cc:Work
         rdf:about="">
        <dc:format>image/svg+xml</dc:format>
        <dc:type
           rdf:resource="http://purl.org/dc/dcmitype/StillImage" />
        <dc:title></dc:title>
      </cc:Work>
    </rdf:RDF>
  </metadata>
  <defs
     id="defs14" />
  <path
     id="path2"
     class="silhouette"
     d="m 335.5,112.5 v 0.25977 L 229.5,126.5 c -30,6 -71.29,7.388 -98,34 -14.662,14.608 -24.01,30.189 -30,50 h -25 v 452 l 78,132.30078 V 1148.5 h 42 V 866.03906 l 10,16.96094 106.92383,181.3574 45.14258,1.7149 L 466.5,883 l 12,-20.35352 V 1148.5 h 42 V 791.4082 L 596.5,662.5 v -452 h -25 c -5.99,-19.811 -15.338,-35.392 -30,-50 -26.71,-26.612 -68,-28 -98,-34 l -106,-13.74023 V 112.5 l -1,0.13086 z" />
</svg>
