<svg xmlns="http://www.w3.org/2000/svg" width="316" height="50" viewBox="0 0 316 50"><title>Craft Kettle Brewing Equipment</title><path d="M21.7 3c.1.1.1.1.1.2v5.7h-3.1l-.2-2.4c0-.2-.1-.4-.3-.5-1.3-.7-2.7-1-4.2-1-4.3 0-7.4 3.1-7.4 9 0 6 3.3 9 7.7 9 2.3 0 4.5-.8 6.5-2.2l1.5 3.7c-2.2 1.8-5 2.8-8.3 2.8-7.8 0-13-5.6-13-13.3C1 6.3 6.2.7 14 .7c3 0 5.6.8 7.7 2.3zm18-2c5.1 0 8.6 3.1 8.6 7.5 0 3.3-2 5.8-5.1 6.7l-.2.1 4.9 8c.1.2.2.2.4.3l2.8.2V27h-7c-.1 0-.2-.1-.3-.2L38.3 16h-2.9v7c0 .3.2.6.6.6l2.5.2V27H27.2v-2.9c0-.2.1-.3.3-.3l2-.2c.3 0 .6-.3.6-.6V5c0-.3-.2-.6-.6-.6l-2-.2c-.2 0-.3-.1-.3-.3V1h12.5zm-4.3 4.4v6.3h4.4c2.1 0 3.3-1.2 3.3-3.2s-1.3-3.2-3.3-3.2H37l-1.6.1zm47.9 18.4V27H72.2v-2.9c0-.2.1-.3.3-.3l1.9-.2c.5 0 .8-.5.6-1l-1.1-2.8H63.4l-1.5 3.7 3 .2V27H55v-2.9c0-.2.1-.3.3-.3l1.6-.1c.2 0 .4-.1.5-.4l8.9-22.1 5.5-.3 9.4 22.7 2.1.2zm-11-8.3l-3.6-9.2-3.7 9.2h7.3zM106.1 1c.2 0 .3.1.3.3v7h-3.1l-.2-2.4c0-.3-.3-.6-.6-.6h-6.2v7h6.5v4.1h-6.5v7.1l3.1.3V27H88.1v-2.9c0-.2.1-.3.3-.3l2-.2c.3 0 .6-.3.6-.6V5c0-.3-.2-.6-.6-.6l-2-.2c-.2 0-.3-.1-.3-.3V1h18zm28.7 0c.2 0 .3.1.3.3v6.8H132l-.2-2.4c0-.3-.3-.6-.6-.6h-4.9V23c0 .3.2.6.6.6l2.3.2V27H118v-2.9c0-.2.1-.3.3-.3l2.1-.2c.3 0 .6-.3.6-.6V5.2h-4.9c-.3 0-.6.2-.6.6l-.2 2.4h-3.1V1.4c0-.2.1-.3.3-.3l22.3-.1zm44.7 3.4l-7.6 8.4 7.5 10.6c.1.1.2.2.4.2l2.7.2c.2 0 .3.1.3.3V27h-7.3l-7-10.4-3.4 3.7V23c0 .3.2.6.6.6l2.5.2V27h-11.3v-2.9c0-.2.1-.3.3-.3l2-.2c.3 0 .6-.3.6-.6V5c0-.3-.2-.6-.6-.6l-2-.2c-.2 0-.3-.1-.3-.3V1h11.2v3.2l-2.3.2c-.3 0-.6.3-.6.6v9.6l7.9-9c.4-.5.3-1.1-.3-1.3l-.8-.1c-.1 0-.2-.1-.2-.3V1H182v3.2l-2.5.2zM207.3 1c.2 0 .3.1.3.3v7h-3.1l-.2-2.4c0-.3-.3-.6-.6-.6h-6.6v6.5h7v4.1h-7v6.7h7.2c.3 0 .6-.2.6-.6l.2-2.4h3.1v7c0 .2-.1.3-.3.3h-19.1V24c0-.2.1-.3.3-.3l2-.2c.3 0 .6-.3.6-.6V5c0-.3-.2-.6-.6-.6l-2-.2c-.2 0-.3-.1-.3-.3V1h18.5zm29 0c.2 0 .3.1.3.3v6.8h-3.1l-.2-2.4c0-.3-.3-.6-.6-.6h-4.9V23c0 .3.2.6.6.6l2.3.2V27h-11.2v-2.9c0-.2.1-.3.3-.3l2.1-.2c.3 0 .6-.3.6-.6V5.2h-4.9c-.3 0-.6.2-.6.6l-.2 2.4h-3.1V1.4c0-.2.1-.3.3-.3l22.3-.1zm28.1 0c.2 0 .3.1.3.3v6.8h-3.1l-.2-2.4c0-.3-.3-.6-.6-.6h-4.9V23c0 .3.2.6.6.6l2.3.2V27h-11.2v-2.9c0-.2.1-.3.3-.3l2.1-.2c.3 0 .6-.3.6-.6V5.2h-4.9c-.3 0-.6.2-.6.6l-.2 2.4h-3.1V1.4c0-.2.1-.3.3-.3l22.3-.1zm15.3 3.4c-.3 0-.6.3-.6.6v17.6h6.8c.3 0 .6-.2.6-.6l.2-2.4h3.1v7c0 .2-.1.3-.3.3h-18.6V24c0-.2.1-.3.3-.3l2-.2c.3 0 .6-.3.6-.6V5c0-.3-.2-.6-.6-.6l-2-.2c-.2 0-.3-.1-.3-.3V1h11.3v3.2l-2.5.2zM314 1c.2 0 .3.1.3.3v7h-3.1l-.2-2.4c0-.3-.3-.6-.6-.6h-6.6v6.5h7v4.1h-7v6.7h7.2c.3 0 .6-.2.6-.6l.2-2.4h3.1v7c0 .2-.1.3-.3.3h-19.1V24c0-.2.1-.3.3-.3l2-.2c.3 0 .6-.3.6-.6V5c0-.3-.2-.6-.6-.6l-2-.2c-.2 0-.3-.1-.3-.3V1H314zM66.6 47.7h-3.2V37.3c1.4-.1 2.4-.1 3-.1 1.1 0 1.9.2 2.5.7.6.5.9 1.1.9 2 0 .8-.4 1.5-1.3 2 1.3.5 1.9 1.4 1.9 2.8 0 1-.4 1.7-1.1 2.3-.6.4-1.6.7-2.7.7zm-1.3-8.9v2.5h.9c1.2 0 1.8-.5 1.8-1.4 0-.8-.5-1.2-1.6-1.2-.4 0-.7 0-1.1.1zm0 3.9v3.4h.9c.8 0 1.4-.1 1.8-.4.4-.3.6-.7.6-1.4 0-.6-.2-1-.5-1.3-.3-.3-1-.4-1.8-.4-.3.1-.6.1-1 .1zm15.6 5l-2.8-4.3c-.3 0-.7 0-1.2-.1v4.4H75V37.3c.1 0 .5 0 1.2-.1.7 0 1.3-.1 1.7-.1 2.7 0 4 1 4 3.1 0 .6-.2 1.2-.5 1.7-.4.5-.8.9-1.4 1.1l3.1 4.7h-2.2zm-4-8.8v2.9h.8c.8 0 1.3-.1 1.7-.3.4-.2.5-.6.5-1.3 0-.5-.2-.9-.6-1.1-.4-.2-1-.3-1.8-.3-.1 0-.4 0-.6.1zm11.8 0v2.4h3.4v1.6h-3.4V46h4.7v1.6h-6.6V37.3h6.7v1.6h-4.8zm17.8 8.9h-.8l-2.3-6.6-2.2 6.6h-.8L97 37.3h2l2 6.3 2.1-6.3h.8l2.1 6.3 2-6.3h1.9l-3.4 10.5zm7.4-.1V37.3h1.9v10.4h-1.9zm13.8.1l-5.1-6.6v6.5h-1.8V37.3h.9l4.9 6.3v-6.3h1.8v10.6h-.7zm13.5-9.7l-.8 1.5c-.2-.2-.6-.4-1-.6-.5-.2-.8-.3-1.2-.3-1 0-1.8.3-2.4 1-.6.7-.9 1.6-.9 2.8 0 1.1.3 2 .9 2.7.6.7 1.4 1 2.4 1 .7 0 1.2-.2 1.6-.5v-2.1h-1.4V42h3.3v4.7c-.4.4-1 .6-1.7.8-.7.2-1.4.3-2.1.3-1.5 0-2.7-.5-3.6-1.5-.9-1-1.3-2.3-1.3-3.9s.5-2.9 1.4-3.9c1-1 2.2-1.5 3.9-1.5 1.1.1 2.1.4 2.9 1.1zm14.2.8v2.4h3.4v1.6h-3.4V46h4.7v1.6h-6.6V37.3h6.7v1.6h-4.8zm19 11c-.3 0-.6.1-1 .1-.9 0-1.7-.2-2.4-.5s-1.3-.9-1.7-1.5c-.2 0-.5.1-.8.1-1.4 0-2.5-.5-3.2-1.5-.8-1-1.2-2.3-1.2-4 0-1.5.4-2.8 1.2-3.8s1.9-1.5 3.2-1.5c1.5 0 2.7.5 3.5 1.4.8.9 1.2 2.3 1.2 3.9 0 2.5-.8 4.2-2.5 5 .5.6 1.4.9 2.6.9.4 0 .8 0 1.1-.1v1.5zm-8.5-7.5c0 1.1.2 2 .7 2.7.4.7 1 1.1 1.8 1.1.9 0 1.6-.3 2.1-1s.7-1.6.7-2.8c0-2.5-.9-3.7-2.8-3.7-.8 0-1.4.3-1.9 1s-.6 1.6-.6 2.7zm11.9-5.1h1.9v7.1c0 .6.2 1 .5 1.4.3.4.8.5 1.4.5.7 0 1.2-.2 1.6-.5.4-.3.6-.8.6-1.4v-7h1.9v7.2c0 1.1-.4 1.9-1.1 2.5-.7.6-1.7.9-2.9.9s-2.1-.3-2.8-.9c-.7-.6-1-1.4-1-2.6v-7.2zm12.8 10.4V37.3h1.9v10.4h-1.9zm8.8-3.8v3.8h-1.9V37.3c1.2-.1 2-.1 2.2-.1 1.6 0 2.9.3 3.6.8.8.5 1.1 1.3 1.1 2.4 0 2.4-1.4 3.6-4.2 3.6-.2-.1-.4-.1-.8-.1zm0-5v3.3h.7c.8 0 1.5-.1 1.9-.4.4-.3.6-.7.6-1.4 0-1.1-.9-1.6-2.6-1.6-.2 0-.4 0-.6.1zm19.4 8.8H217l-1.1-5.6-2.1 5.8h-.7l-2.1-5.8-1.1 5.6h-1.8l2.1-10.4h1l2.3 7 2.2-7h1l2.1 10.4zm5.9-8.8v2.4h3.4v1.6h-3.4V46h4.7v1.6h-6.6V37.3h6.7v1.6h-4.8zm16.2 8.9l-5.1-6.6v6.5H234V37.3h.9l4.9 6.3v-6.3h1.8v10.6h-.7zm10.1-8.9v8.8h-1.9v-8.8h-3.3v-1.6h8.6v1.6H251z" fill="#15323f"/><path d="M299.5 41.1h-2.8l-1.1 1.1h-2.5l.6-.6 1.4.1 1.7-1.7c.3-.3.1-.9-.3-1.4-.5-.5-1.1-.6-1.4-.3l-1.7 1.7.1 1.4-.8.8-.1.1h-3.4l.6-.6 1.4.1 1.7-1.7c.3-.3.1-.9-.3-1.4-.5-.5-1.1-.6-1.4-.3l-1.7 1.7.1 1.4-.8.8-.1.1h-3.4l.6-.6 1.4.1L289 40c.3-.3.1-.9-.3-1.4-.5-.5-1.1-.6-1.4-.3l-1.7 1.7.1 1.4-.8.8-.1.1h-3.4l.6-.6 1.4.1L285 40c.3-.3.1-.9-.3-1.4-.5-.5-1.1-.6-1.4-.3l-1.7 1.7.1 1.4-.8.8-.1.1h-3.4l.6-.6 1.4.1 1.7-1.7c.3-.3.1-.9-.3-1.4-.5-.5-1.1-.6-1.4-.3l-1.7 1.7.1 1.4-.8.8-.1.1h-3.4l.6-.6 1.4.1 1.7-1.7c.3-.3.1-.9-.3-1.4-.5-.5-1.1-.6-1.4-.3l-1.7 1.7.1 1.4-.8.8-.1.1h-15.4c-.1 0-.2.1-.2.2s.1.2.2.2H273l.1.1.8.8-.1 1.4 1.7 1.7c.3.3.9.1 1.4-.3.5-.5.6-1.1.3-1.4l-1.7-1.7-1.4.1-.6-.6h3.4l.1.1.8.8-.1 1.4 1.7 1.7c.3.3.9.1 1.4-.3.5-.5.6-1.1.3-1.4l-1.7-1.7-1.4.1-.6-.6h3.4l.1.1.8.8-.1 1.4 1.7 1.7c.3.3.9.1 1.4-.3s.6-1.1.3-1.4l-1.7-1.7-1.4.1-.6-.6h3.4l.1.1.8.8-.1 1.4 1.7 1.7c.3.3.9.1 1.4-.3.5-.5.6-1.1.3-1.4l-1.7-1.7-1.4.1-.6-.6h3.4l.1.1.8.8-.1 1.4 1.7 1.7c.3.3.9.1 1.4-.3s.6-1.1.3-1.4l-1.7-1.7-1.4.1-.6-.6h3.4l.1.1.8.8-.1 1.4 1.7 1.7c.3.3.9.1 1.4-.3.5-.5.6-1.1.3-1.4L295 44l-1.4.1-.6-.6h2.5l1.1 1.1h2.8c.4 0 .9-.5.9-1.2.1-1.7-.3-2.3-.8-2.3zM58.4 42.2H43v-.1l-.8-.8.1-1.4-1.7-1.7c-.3-.3-.9-.1-1.4.3-.5.5-.6 1.1-.3 1.4l1.7 1.7 1.4-.1.6.6H39l-.8-.8.1-1.4-1.7-1.7c-.3-.3-.9-.1-1.4.3-.5.5-.6 1.1-.3 1.4l1.7 1.7 1.4-.1.6.6h-3.4l-.1-.1-.8-.8.1-1.4-1.7-1.7c-.3-.3-.9-.1-1.4.3-.5.5-.6 1.1-.3 1.4l1.7 1.7 1.4-.1.6.6h-3.4l-.1-.1-.8-.8.1-1.4-1.7-1.7c-.3-.3-.9-.1-1.4.3-.5.5-.6 1.1-.3 1.4l1.7 1.7 1.4-.1.6.6h-3.4l-.1-.1-.8-.8.1-1.4-1.7-1.7c-.3-.3-.9-.1-1.4.3-.5.5-.6 1.1-.3 1.4l1.7 1.7 1.4-.1.6.6h-3.4l-.1-.1-.8-.8.1-1.4-1.7-1.7c-.3-.3-.9-.1-1.4.3-.5.5-.6 1.1-.3 1.4l1.7 1.7 1.4-.1.6.6h-2.5l-1.1-1.1h-2.8c-.4 0-.9.5-.9 1.2s.4 1.2.9 1.2h2.8l1.1-1.1H23l-.6.6-1.5.5-1.7 1.7c-.3.3-.1.9.3 1.4.5.5 1.1.6 1.4.3l1.7-1.7-.1-1.4.8-.8.1-.1h3.4l-.6.6h-1.4l-1.7 1.7c-.3.3-.1.9.3 1.4s1.1.6 1.4.3l1.7-1.7-.1-1.4.8-.8.1-.1h3.4l-.6.6h-1.4L27 44.8c-.3.3-.1.9.3 1.4s1.1.6 1.4.3l1.7-1.7-.1-1.4.8-.8.1-.1h3.4l-.6.6-1.3-.1-1.7 1.8c-.3.3-.1.9.3 1.4s1.1.6 1.4.3l1.7-1.7-.1-1.4.8-.8.1-.1h3.4l-.6.6-1.4-.1-1.7 1.7c-.3.3-.1.9.3 1.4s1.1.6 1.4.3l1.7-1.7-.1-1.4.8-.8.1-.1h3.4l-.6.6h-1.3l-1.7 1.7c-.3.3-.1.9.3 1.4.5.5 1.1.6 1.4.3l1.7-1.7-.1-1.4.8-.8.1-.1h15.3c.1 0 .2-.1.2-.2s-.1 0-.2 0z" fill="#bb834b"/></svg>